<svg width="729" height="174" viewBox="0 0 729 174" fill="none" xmlns="http://www.w3.org/2000/svg">
<path d="M193.364 30.9091H215.818V90.9545C215.818 97.8939 214.167 103.939 210.864 109.091C207.561 114.212 202.955 118.182 197.045 121C191.136 123.788 184.273 125.182 176.455 125.182C168.545 125.182 161.636 123.788 155.727 121C149.818 118.182 145.227 114.212 141.955 109.091C138.682 103.939 137.045 97.8939 137.045 90.9545V30.9091H159.545V89C159.545 92.2121 160.242 95.0758 161.636 97.5909C163.061 100.106 165.045 102.076 167.591 103.5C170.136 104.924 173.091 105.636 176.455 105.636C179.818 105.636 182.758 104.924 185.273 103.5C187.818 102.076 189.803 100.106 191.227 97.5909C192.652 95.0758 193.364 92.2121 193.364 89V30.9091ZM314.42 64.6364H291.693C291.39 62.303 290.769 60.197 289.83 58.3182C288.89 56.4394 287.648 54.8333 286.102 53.5C284.557 52.1667 282.723 51.1515 280.602 50.4545C278.511 49.7273 276.193 49.3636 273.648 49.3636C269.133 49.3636 265.239 50.4697 261.966 52.6818C258.723 54.8939 256.223 58.0909 254.466 62.2727C252.739 66.4545 251.875 71.5151 251.875 77.4545C251.875 83.6364 252.754 88.8182 254.511 93C256.299 97.1515 258.799 100.288 262.011 102.409C265.254 104.5 269.087 105.545 273.511 105.545C275.996 105.545 278.254 105.227 280.284 104.591C282.345 103.955 284.148 103.03 285.693 101.818C287.269 100.576 288.557 99.0758 289.557 97.3182C290.587 95.5303 291.299 93.5152 291.693 91.2727L314.42 91.4091C314.027 95.5303 312.83 99.5909 310.83 103.591C308.86 107.591 306.148 111.242 302.693 114.545C299.239 117.818 295.027 120.424 290.057 122.364C285.117 124.303 279.451 125.273 273.057 125.273C264.633 125.273 257.087 123.424 250.42 119.727C243.784 116 238.542 110.576 234.693 103.455C230.845 96.3333 228.92 87.6667 228.92 77.4545C228.92 67.2121 230.875 58.5303 234.784 51.4091C238.693 44.2879 243.981 38.8788 250.648 35.1818C257.314 31.4848 264.784 29.6364 273.057 29.6364C278.693 29.6364 283.905 30.4242 288.693 32C293.481 33.5455 297.693 35.8182 301.33 38.8182C304.966 41.7879 307.92 45.4394 310.193 49.7727C312.466 54.1061 313.875 59.0606 314.42 64.6364ZM345.057 124H320.875L352.284 30.9091H382.239L413.648 124H389.466L367.602 54.3636H366.875L345.057 124ZM341.83 87.3636H392.375V104.455H341.83V87.3636ZM409 49.1818V30.9091H487.682V49.1818H459.455V124H437.273V49.1818H409ZM541.477 68.9091V86H498.386V68.9091H541.477ZM592.023 125.273C584.932 125.273 578.644 124.061 573.159 121.636C567.705 119.182 563.402 115.803 560.25 111.5C557.098 107.197 555.492 102.242 555.432 96.6364H578.068C578.159 98.6667 578.811 100.47 580.023 102.045C581.235 103.591 582.886 104.803 584.977 105.682C587.068 106.561 589.447 107 592.114 107C594.78 107 597.129 106.53 599.159 105.591C601.22 104.621 602.826 103.303 603.977 101.636C605.129 99.9394 605.689 98 605.659 95.8182C605.689 93.6364 605.068 91.697 603.795 90C602.523 88.303 600.72 86.9848 598.386 86.0455C596.083 85.1061 593.356 84.6364 590.205 84.6364H581.159V68.6364H590.205C592.962 68.6364 595.386 68.1818 597.477 67.2727C599.598 66.3636 601.25 65.0909 602.432 63.4545C603.614 61.7879 604.189 59.8788 604.159 57.7273C604.189 55.6364 603.689 53.803 602.659 52.2273C601.659 50.6212 600.25 49.3788 598.432 48.5C596.644 47.6212 594.568 47.1818 592.205 47.1818C589.72 47.1818 587.462 47.6212 585.432 48.5C583.432 49.3788 581.841 50.6212 580.659 52.2273C579.477 53.8333 578.856 55.697 578.795 57.8182H557.295C557.356 52.2727 558.902 47.3939 561.932 43.1818C564.962 38.9394 569.083 35.6212 574.295 33.2273C579.538 30.8333 585.508 29.6364 592.205 29.6364C598.871 29.6364 604.735 30.803 609.795 33.1364C614.856 35.4697 618.795 38.6515 621.614 42.6818C624.432 46.6818 625.841 51.2121 625.841 56.2727C625.871 61.5151 624.159 65.8333 620.705 69.2273C617.28 72.6212 612.871 74.7121 607.477 75.5V76.2273C614.689 77.0758 620.129 79.4091 623.795 83.2273C627.492 87.0455 629.326 91.8182 629.295 97.5455C629.295 102.939 627.705 107.727 624.523 111.909C621.371 116.061 616.977 119.333 611.341 121.727C605.735 124.091 599.295 125.273 592.023 125.273ZM676.58 124H642.17V30.9091H676.534C686.019 30.9091 694.186 32.7727 701.034 36.5C707.913 40.197 713.216 45.5303 716.943 52.5C720.67 59.4394 722.534 67.7424 722.534 77.4091C722.534 87.1061 720.67 95.4394 716.943 102.409C713.246 109.379 707.958 114.727 701.08 118.455C694.201 122.152 686.034 124 676.58 124ZM664.67 104.818H675.716C680.928 104.818 685.337 103.939 688.943 102.182C692.58 100.394 695.322 97.5 697.17 93.5C699.049 89.4697 699.989 84.1061 699.989 77.4091C699.989 70.7121 699.049 65.3788 697.17 61.4091C695.292 57.4091 692.519 54.5303 688.852 52.7727C685.216 50.9848 680.731 50.0909 675.398 50.0909H664.67V104.818Z" fill="black"/>
<rect y="99" width="120" height="25" rx="8" fill="#FFDF39"/>
<rect y="64" width="120" height="25" rx="8" fill="#FFDF39"/>
<rect y="29" width="80" height="25" rx="8" fill="#3988FF"/>
<path d="M18.6563 142H21.5625V157.891C21.5625 159.531 21.1758 160.996 20.4023 162.285C19.6367 163.566 18.5547 164.578 17.1563 165.32C15.7578 166.055 14.1172 166.422 12.2344 166.422C10.3516 166.422 8.71094 166.055 7.3125 165.32C5.91406 164.578 4.82813 163.566 4.05469 162.285C3.28906 160.996 2.90625 159.531 2.90625 157.891V142H5.8125V157.656C5.8125 158.828 6.07031 159.871 6.58594 160.785C7.10156 161.691 7.83594 162.406 8.78906 162.93C9.75 163.445 10.8984 163.703 12.2344 163.703C13.5703 163.703 14.7188 163.445 15.6797 162.93C16.6406 162.406 17.375 161.691 17.8828 160.785C18.3984 159.871 18.6563 158.828 18.6563 157.656V142ZM29.5693 159.437L29.5225 156.016H30.085L37.96 148H41.3818L32.9912 156.484H32.7568L29.5693 159.437ZM26.9912 166V142H29.7568V166H26.9912ZM38.4287 166L31.3975 157.094L33.3662 155.172L41.9443 166H38.4287ZM44.9414 166V148H47.6133V150.719H47.8008C48.1289 149.828 48.7227 149.105 49.582 148.551C50.4414 147.996 51.4102 147.719 52.4883 147.719C52.6914 147.719 52.9453 147.723 53.25 147.73C53.5547 147.738 53.7852 147.75 53.9414 147.766V150.578C53.8477 150.555 53.6328 150.52 53.2969 150.473C52.9688 150.418 52.6211 150.391 52.2539 150.391C51.3789 150.391 50.5977 150.574 49.9102 150.941C49.2305 151.301 48.6914 151.801 48.293 152.441C47.9023 153.074 47.707 153.797 47.707 154.609V166H44.9414ZM62.5166 166.422C61.376 166.422 60.3408 166.207 59.4111 165.777C58.4814 165.34 57.7432 164.711 57.1963 163.891C56.6494 163.063 56.376 162.062 56.376 160.891C56.376 159.859 56.5791 159.023 56.9854 158.383C57.3916 157.734 57.9346 157.227 58.6143 156.859C59.2939 156.492 60.0439 156.219 60.8643 156.039C61.6924 155.852 62.5244 155.703 63.3604 155.594C64.4541 155.453 65.3408 155.348 66.0205 155.277C66.708 155.199 67.208 155.07 67.5205 154.891C67.8408 154.711 68.001 154.398 68.001 153.953V153.859C68.001 152.703 67.6846 151.805 67.0518 151.164C66.4268 150.523 65.4775 150.203 64.2041 150.203C62.8838 150.203 61.8486 150.492 61.0986 151.07C60.3486 151.648 59.8213 152.266 59.5166 152.922L56.8916 151.984C57.3604 150.891 57.9854 150.039 58.7666 149.43C59.5557 148.812 60.415 148.383 61.3447 148.141C62.2822 147.891 63.2041 147.766 64.1104 147.766C64.6885 147.766 65.3525 147.836 66.1025 147.977C66.8604 148.109 67.5908 148.387 68.2939 148.809C69.0049 149.23 69.5947 149.867 70.0635 150.719C70.5322 151.57 70.7666 152.711 70.7666 154.141V166H68.001V163.562H67.8604C67.6729 163.953 67.3604 164.371 66.9229 164.816C66.4854 165.262 65.9033 165.641 65.1768 165.953C64.4502 166.266 63.5635 166.422 62.5166 166.422ZM62.9385 163.938C64.0322 163.938 64.9541 163.723 65.7041 163.293C66.4619 162.863 67.0322 162.309 67.415 161.629C67.8057 160.949 68.001 160.234 68.001 159.484V156.953C67.8838 157.094 67.626 157.223 67.2275 157.34C66.8369 157.449 66.3838 157.547 65.8682 157.633C65.3604 157.711 64.8643 157.781 64.3799 157.844C63.9033 157.898 63.5166 157.945 63.2197 157.984C62.501 158.078 61.8291 158.23 61.2041 158.441C60.5869 158.645 60.0869 158.953 59.7041 159.367C59.3291 159.773 59.1416 160.328 59.1416 161.031C59.1416 161.992 59.4971 162.719 60.208 163.211C60.9268 163.695 61.8369 163.938 62.9385 163.938ZM75.8145 166V148H78.5801V166H75.8145ZM77.2207 145C76.6816 145 76.2168 144.816 75.8262 144.449C75.4434 144.082 75.252 143.641 75.252 143.125C75.252 142.609 75.4434 142.168 75.8262 141.801C76.2168 141.434 76.6816 141.25 77.2207 141.25C77.7598 141.25 78.2207 141.434 78.6035 141.801C78.9941 142.168 79.1895 142.609 79.1895 143.125C79.1895 143.641 78.9941 144.082 78.6035 144.449C78.2207 144.816 77.7598 145 77.2207 145ZM86.4111 155.172V166H83.6455V148H86.3174V150.812H86.5518C86.9736 149.898 87.6143 149.164 88.4736 148.609C89.333 148.047 90.4424 147.766 91.8018 147.766C93.0205 147.766 94.0869 148.016 95.001 148.516C95.915 149.008 96.626 149.758 97.1338 150.766C97.6416 151.766 97.8955 153.031 97.8955 154.563V166H95.1299V154.75C95.1299 153.336 94.7627 152.234 94.0283 151.445C93.2939 150.648 92.2861 150.25 91.0049 150.25C90.1221 150.25 89.333 150.441 88.6377 150.824C87.9502 151.207 87.4072 151.766 87.0088 152.5C86.6104 153.234 86.4111 154.125 86.4111 155.172ZM102.949 166V148H105.715V166H102.949ZM104.355 145C103.816 145 103.352 144.816 102.961 144.449C102.578 144.082 102.387 143.641 102.387 143.125C102.387 142.609 102.578 142.168 102.961 141.801C103.352 141.434 103.816 141.25 104.355 141.25C104.895 141.25 105.355 141.434 105.738 141.801C106.129 142.168 106.324 142.609 106.324 143.125C106.324 143.641 106.129 144.082 105.738 144.449C105.355 144.816 104.895 145 104.355 145ZM116.077 166.422C114.937 166.422 113.901 166.207 112.972 165.777C112.042 165.34 111.304 164.711 110.757 163.891C110.21 163.063 109.937 162.062 109.937 160.891C109.937 159.859 110.14 159.023 110.546 158.383C110.952 157.734 111.495 157.227 112.175 156.859C112.854 156.492 113.604 156.219 114.425 156.039C115.253 155.852 116.085 155.703 116.921 155.594C118.015 155.453 118.901 155.348 119.581 155.277C120.269 155.199 120.769 155.07 121.081 154.891C121.401 154.711 121.562 154.398 121.562 153.953V153.859C121.562 152.703 121.245 151.805 120.612 151.164C119.987 150.523 119.038 150.203 117.765 150.203C116.444 150.203 115.409 150.492 114.659 151.07C113.909 151.648 113.382 152.266 113.077 152.922L110.452 151.984C110.921 150.891 111.546 150.039 112.327 149.43C113.116 148.812 113.976 148.383 114.905 148.141C115.843 147.891 116.765 147.766 117.671 147.766C118.249 147.766 118.913 147.836 119.663 147.977C120.421 148.109 121.151 148.387 121.854 148.809C122.565 149.23 123.155 149.867 123.624 150.719C124.093 151.57 124.327 152.711 124.327 154.141V166H121.562V163.562H121.421C121.233 163.953 120.921 164.371 120.483 164.816C120.046 165.262 119.464 165.641 118.737 165.953C118.011 166.266 117.124 166.422 116.077 166.422ZM116.499 163.938C117.593 163.938 118.515 163.723 119.265 163.293C120.022 162.863 120.593 162.309 120.976 161.629C121.366 160.949 121.562 160.234 121.562 159.484V156.953C121.444 157.094 121.187 157.223 120.788 157.34C120.397 157.449 119.944 157.547 119.429 157.633C118.921 157.711 118.425 157.781 117.94 157.844C117.464 157.898 117.077 157.945 116.78 157.984C116.062 158.078 115.39 158.23 114.765 158.441C114.147 158.645 113.647 158.953 113.265 159.367C112.89 159.773 112.702 160.328 112.702 161.031C112.702 161.992 113.058 162.719 113.769 163.211C114.487 163.695 115.397 163.938 116.499 163.938ZM132.141 155.172V166H129.375V148H132.047V150.812H132.281C132.703 149.898 133.344 149.164 134.203 148.609C135.063 148.047 136.172 147.766 137.531 147.766C138.75 147.766 139.816 148.016 140.73 148.516C141.645 149.008 142.355 149.758 142.863 150.766C143.371 151.766 143.625 153.031 143.625 154.563V166H140.859V154.75C140.859 153.336 140.492 152.234 139.758 151.445C139.023 150.648 138.016 150.25 136.734 150.25C135.852 150.25 135.063 150.441 134.367 150.824C133.68 151.207 133.137 151.766 132.738 152.5C132.34 153.234 132.141 154.125 132.141 155.172ZM176.938 149.5H174.032C173.86 148.664 173.56 147.93 173.13 147.297C172.708 146.664 172.192 146.133 171.583 145.703C170.981 145.266 170.313 144.937 169.579 144.719C168.845 144.5 168.079 144.391 167.282 144.391C165.829 144.391 164.513 144.758 163.333 145.492C162.161 146.227 161.228 147.309 160.532 148.738C159.845 150.168 159.501 151.922 159.501 154C159.501 156.078 159.845 157.832 160.532 159.262C161.228 160.691 162.161 161.773 163.333 162.508C164.513 163.242 165.829 163.609 167.282 163.609C168.079 163.609 168.845 163.5 169.579 163.281C170.313 163.062 170.981 162.738 171.583 162.309C172.192 161.871 172.708 161.336 173.13 160.703C173.56 160.062 173.86 159.328 174.032 158.5H176.938C176.72 159.727 176.321 160.824 175.743 161.793C175.165 162.762 174.446 163.586 173.587 164.266C172.728 164.937 171.763 165.449 170.692 165.801C169.63 166.152 168.493 166.328 167.282 166.328C165.235 166.328 163.415 165.828 161.821 164.828C160.228 163.828 158.974 162.406 158.06 160.562C157.146 158.719 156.688 156.531 156.688 154C156.688 151.469 157.146 149.281 158.06 147.438C158.974 145.594 160.228 144.172 161.821 143.172C163.415 142.172 165.235 141.672 167.282 141.672C168.493 141.672 169.63 141.848 170.692 142.199C171.763 142.551 172.728 143.066 173.587 143.746C174.446 144.418 175.165 145.238 175.743 146.207C176.321 147.168 176.72 148.266 176.938 149.5ZM188.572 166.375C186.947 166.375 185.521 165.988 184.295 165.215C183.076 164.441 182.123 163.359 181.436 161.969C180.756 160.578 180.416 158.953 180.416 157.094C180.416 155.219 180.756 153.582 181.436 152.184C182.123 150.785 183.076 149.699 184.295 148.926C185.521 148.152 186.947 147.766 188.572 147.766C190.197 147.766 191.619 148.152 192.838 148.926C194.064 149.699 195.018 150.785 195.697 152.184C196.385 153.582 196.729 155.219 196.729 157.094C196.729 158.953 196.385 160.578 195.697 161.969C195.018 163.359 194.064 164.441 192.838 165.215C191.619 165.988 190.197 166.375 188.572 166.375ZM188.572 163.891C189.807 163.891 190.822 163.574 191.619 162.941C192.416 162.309 193.006 161.477 193.389 160.445C193.771 159.414 193.963 158.297 193.963 157.094C193.963 155.891 193.771 154.77 193.389 153.73C193.006 152.691 192.416 151.852 191.619 151.211C190.822 150.57 189.807 150.25 188.572 150.25C187.338 150.25 186.322 150.57 185.525 151.211C184.729 151.852 184.139 152.691 183.756 153.73C183.373 154.77 183.182 155.891 183.182 157.094C183.182 158.297 183.373 159.414 183.756 160.445C184.139 161.477 184.729 162.309 185.525 162.941C186.322 163.574 187.338 163.891 188.572 163.891ZM203.716 155.172V166H200.95V148H203.622V150.812H203.856C204.278 149.898 204.919 149.164 205.778 148.609C206.638 148.047 207.747 147.766 209.106 147.766C210.325 147.766 211.392 148.016 212.306 148.516C213.22 149.008 213.931 149.758 214.438 150.766C214.946 151.766 215.2 153.031 215.2 154.563V166H212.435V154.75C212.435 153.336 212.067 152.234 211.333 151.445C210.599 150.648 209.591 150.25 208.31 150.25C207.427 150.25 206.638 150.441 205.942 150.824C205.255 151.207 204.712 151.766 204.313 152.5C203.915 153.234 203.716 154.125 203.716 155.172ZM233.004 152.031L230.52 152.734C230.363 152.32 230.133 151.918 229.828 151.527C229.531 151.129 229.125 150.801 228.609 150.543C228.094 150.285 227.434 150.156 226.629 150.156C225.527 150.156 224.609 150.41 223.875 150.918C223.148 151.418 222.785 152.055 222.785 152.828C222.785 153.516 223.035 154.059 223.535 154.457C224.035 154.855 224.816 155.187 225.879 155.453L228.551 156.109C230.16 156.5 231.359 157.098 232.148 157.902C232.938 158.699 233.332 159.727 233.332 160.984C233.332 162.016 233.035 162.937 232.441 163.75C231.855 164.562 231.035 165.203 229.98 165.672C228.926 166.141 227.699 166.375 226.301 166.375C224.465 166.375 222.945 165.977 221.742 165.18C220.539 164.383 219.777 163.219 219.457 161.687L222.082 161.031C222.332 162 222.805 162.727 223.5 163.211C224.203 163.695 225.121 163.938 226.254 163.938C227.543 163.938 228.566 163.664 229.324 163.117C230.09 162.562 230.473 161.898 230.473 161.125C230.473 160.5 230.254 159.977 229.816 159.555C229.379 159.125 228.707 158.805 227.801 158.594L224.801 157.891C223.152 157.5 221.941 156.895 221.168 156.074C220.402 155.246 220.02 154.211 220.02 152.969C220.02 151.953 220.305 151.055 220.875 150.273C221.453 149.492 222.238 148.879 223.23 148.434C224.23 147.988 225.363 147.766 226.629 147.766C228.41 147.766 229.809 148.156 230.824 148.937C231.848 149.719 232.574 150.75 233.004 152.031ZM245.323 148V150.344H235.995V148H245.323ZM238.714 143.687H241.479V160.844C241.479 161.625 241.593 162.211 241.819 162.602C242.054 162.984 242.351 163.242 242.71 163.375C243.077 163.5 243.464 163.562 243.87 163.562C244.175 163.562 244.425 163.547 244.62 163.516C244.815 163.477 244.972 163.445 245.089 163.422L245.651 165.906C245.464 165.977 245.202 166.047 244.866 166.117C244.53 166.195 244.104 166.234 243.589 166.234C242.808 166.234 242.042 166.066 241.292 165.73C240.55 165.395 239.933 164.883 239.44 164.195C238.956 163.508 238.714 162.641 238.714 161.594V143.687ZM249.483 166V148H252.155V150.719H252.343C252.671 149.828 253.265 149.105 254.124 148.551C254.983 147.996 255.952 147.719 257.03 147.719C257.233 147.719 257.487 147.723 257.792 147.73C258.097 147.738 258.327 147.75 258.483 147.766V150.578C258.39 150.555 258.175 150.52 257.839 150.473C257.511 150.418 257.163 150.391 256.796 150.391C255.921 150.391 255.14 150.574 254.452 150.941C253.772 151.301 253.233 151.801 252.835 152.441C252.444 153.074 252.249 153.797 252.249 154.609V166H249.483ZM273.105 158.641V148H275.871V166H273.105V162.953H272.918C272.496 163.867 271.84 164.645 270.949 165.285C270.059 165.918 268.934 166.234 267.574 166.234C266.449 166.234 265.449 165.988 264.574 165.496C263.699 164.996 263.012 164.246 262.512 163.246C262.012 162.238 261.762 160.969 261.762 159.437V148H264.527V159.25C264.527 160.562 264.895 161.609 265.629 162.391C266.371 163.172 267.316 163.562 268.465 163.562C269.152 163.562 269.852 163.387 270.563 163.035C271.281 162.684 271.883 162.145 272.367 161.418C272.859 160.691 273.105 159.766 273.105 158.641ZM288.249 166.375C286.562 166.375 285.108 165.977 283.89 165.18C282.671 164.383 281.733 163.285 281.077 161.887C280.421 160.488 280.093 158.891 280.093 157.094C280.093 155.266 280.429 153.652 281.101 152.254C281.78 150.848 282.726 149.75 283.937 148.961C285.155 148.164 286.577 147.766 288.202 147.766C289.468 147.766 290.608 148 291.624 148.469C292.64 148.937 293.472 149.594 294.12 150.437C294.769 151.281 295.171 152.266 295.327 153.391H292.562C292.351 152.57 291.882 151.844 291.155 151.211C290.437 150.57 289.468 150.25 288.249 150.25C287.171 150.25 286.226 150.531 285.413 151.094C284.608 151.648 283.979 152.434 283.526 153.449C283.081 154.457 282.858 155.641 282.858 157C282.858 158.391 283.077 159.602 283.515 160.633C283.96 161.664 284.585 162.465 285.39 163.035C286.202 163.605 287.155 163.891 288.249 163.891C288.968 163.891 289.62 163.766 290.206 163.516C290.792 163.266 291.288 162.906 291.694 162.437C292.101 161.969 292.39 161.406 292.562 160.75H295.327C295.171 161.812 294.784 162.77 294.167 163.621C293.558 164.465 292.749 165.137 291.741 165.637C290.741 166.129 289.577 166.375 288.249 166.375ZM307.198 148V150.344H297.87V148H307.198ZM300.589 143.687H303.354V160.844C303.354 161.625 303.468 162.211 303.694 162.602C303.929 162.984 304.226 163.242 304.585 163.375C304.952 163.5 305.339 163.562 305.745 163.562C306.05 163.562 306.3 163.547 306.495 163.516C306.69 163.477 306.847 163.445 306.964 163.422L307.526 165.906C307.339 165.977 307.077 166.047 306.741 166.117C306.405 166.195 305.979 166.234 305.464 166.234C304.683 166.234 303.917 166.066 303.167 165.73C302.425 165.395 301.808 164.883 301.315 164.195C300.831 163.508 300.589 162.641 300.589 161.594V143.687ZM311.358 166V148H314.124V166H311.358ZM312.765 145C312.226 145 311.761 144.816 311.37 144.449C310.987 144.082 310.796 143.641 310.796 143.125C310.796 142.609 310.987 142.168 311.37 141.801C311.761 141.434 312.226 141.25 312.765 141.25C313.304 141.25 313.765 141.434 314.147 141.801C314.538 142.168 314.733 142.609 314.733 143.125C314.733 143.641 314.538 144.082 314.147 144.449C313.765 144.816 313.304 145 312.765 145ZM326.502 166.375C324.877 166.375 323.451 165.988 322.225 165.215C321.006 164.441 320.053 163.359 319.365 161.969C318.686 160.578 318.346 158.953 318.346 157.094C318.346 155.219 318.686 153.582 319.365 152.184C320.053 150.785 321.006 149.699 322.225 148.926C323.451 148.152 324.877 147.766 326.502 147.766C328.127 147.766 329.549 148.152 330.768 148.926C331.994 149.699 332.947 150.785 333.627 152.184C334.314 153.582 334.658 155.219 334.658 157.094C334.658 158.953 334.314 160.578 333.627 161.969C332.947 163.359 331.994 164.441 330.768 165.215C329.549 165.988 328.127 166.375 326.502 166.375ZM326.502 163.891C327.736 163.891 328.752 163.574 329.549 162.941C330.346 162.309 330.936 161.477 331.318 160.445C331.701 159.414 331.893 158.297 331.893 157.094C331.893 155.891 331.701 154.77 331.318 153.73C330.936 152.691 330.346 151.852 329.549 151.211C328.752 150.57 327.736 150.25 326.502 150.25C325.268 150.25 324.252 150.57 323.455 151.211C322.658 151.852 322.068 152.691 321.686 153.73C321.303 154.77 321.111 155.891 321.111 157.094C321.111 158.297 321.303 159.414 321.686 160.445C322.068 161.477 322.658 162.309 323.455 162.941C324.252 163.574 325.268 163.891 326.502 163.891ZM341.646 155.172V166H338.88V148H341.552V150.812H341.786C342.208 149.898 342.849 149.164 343.708 148.609C344.567 148.047 345.677 147.766 347.036 147.766C348.255 147.766 349.321 148.016 350.235 148.516C351.149 149.008 351.86 149.758 352.368 150.766C352.876 151.766 353.13 153.031 353.13 154.563V166H350.364V154.75C350.364 153.336 349.997 152.234 349.263 151.445C348.528 150.648 347.521 150.25 346.239 150.25C345.356 150.25 344.567 150.441 343.872 150.824C343.185 151.207 342.642 151.766 342.243 152.5C341.845 153.234 341.646 154.125 341.646 155.172ZM368.824 166H365.777L374.59 142H377.59L386.402 166H383.355L376.184 145.797H375.996L368.824 166ZM369.949 156.625H382.23V159.203H369.949V156.625ZM396.563 166.375C395.063 166.375 393.738 165.996 392.59 165.238C391.441 164.473 390.543 163.395 389.895 162.004C389.246 160.605 388.922 158.953 388.922 157.047C388.922 155.156 389.246 153.516 389.895 152.125C390.543 150.734 391.445 149.66 392.602 148.902C393.758 148.145 395.094 147.766 396.609 147.766C397.781 147.766 398.707 147.961 399.387 148.352C400.074 148.734 400.598 149.172 400.957 149.664C401.324 150.148 401.609 150.547 401.813 150.859H402.047V142H404.813V166H402.141V163.234H401.813C401.609 163.562 401.32 163.977 400.945 164.477C400.57 164.969 400.035 165.41 399.34 165.801C398.645 166.184 397.719 166.375 396.563 166.375ZM396.938 163.891C398.047 163.891 398.984 163.602 399.75 163.023C400.516 162.437 401.098 161.629 401.496 160.598C401.895 159.559 402.094 158.359 402.094 157C402.094 155.656 401.898 154.48 401.508 153.473C401.117 152.457 400.539 151.668 399.773 151.105C399.008 150.535 398.063 150.25 396.938 150.25C395.766 150.25 394.789 150.551 394.008 151.152C393.234 151.746 392.652 152.555 392.262 153.578C391.879 154.594 391.688 155.734 391.688 157C391.688 158.281 391.883 159.445 392.273 160.492C392.672 161.531 393.258 162.359 394.031 162.977C394.813 163.586 395.781 163.891 396.938 163.891ZM417.059 166.375C415.559 166.375 414.234 165.996 413.086 165.238C411.938 164.473 411.039 163.395 410.391 162.004C409.742 160.605 409.418 158.953 409.418 157.047C409.418 155.156 409.742 153.516 410.391 152.125C411.039 150.734 411.941 149.66 413.098 148.902C414.254 148.145 415.59 147.766 417.105 147.766C418.277 147.766 419.203 147.961 419.883 148.352C420.57 148.734 421.094 149.172 421.453 149.664C421.82 150.148 422.105 150.547 422.309 150.859H422.543V142H425.309V166H422.637V163.234H422.309C422.105 163.562 421.816 163.977 421.441 164.477C421.066 164.969 420.531 165.41 419.836 165.801C419.141 166.184 418.215 166.375 417.059 166.375ZM417.434 163.891C418.543 163.891 419.48 163.602 420.246 163.023C421.012 162.437 421.594 161.629 421.992 160.598C422.391 159.559 422.59 158.359 422.59 157C422.59 155.656 422.395 154.48 422.004 153.473C421.613 152.457 421.035 151.668 420.27 151.105C419.504 150.535 418.559 150.25 417.434 150.25C416.262 150.25 415.285 150.551 414.504 151.152C413.73 151.746 413.148 152.555 412.758 153.578C412.375 154.594 412.184 155.734 412.184 157C412.184 158.281 412.379 159.445 412.77 160.492C413.168 161.531 413.754 162.359 414.527 162.977C415.309 163.586 416.277 163.891 417.434 163.891ZM430.758 166V148H433.523V166H430.758ZM432.164 145C431.625 145 431.16 144.816 430.77 144.449C430.387 144.082 430.195 143.641 430.195 143.125C430.195 142.609 430.387 142.168 430.77 141.801C431.16 141.434 431.625 141.25 432.164 141.25C432.703 141.25 433.164 141.434 433.547 141.801C433.938 142.168 434.133 142.609 434.133 143.125C434.133 143.641 433.938 144.082 433.547 144.449C433.164 144.816 432.703 145 432.164 145ZM446.417 148V150.344H437.089V148H446.417ZM439.808 143.687H442.573V160.844C442.573 161.625 442.687 162.211 442.913 162.602C443.147 162.984 443.444 163.242 443.804 163.375C444.171 163.5 444.558 163.562 444.964 163.562C445.269 163.562 445.519 163.547 445.714 163.516C445.909 163.477 446.065 163.445 446.183 163.422L446.745 165.906C446.558 165.977 446.296 166.047 445.96 166.117C445.624 166.195 445.198 166.234 444.683 166.234C443.901 166.234 443.136 166.066 442.386 165.73C441.644 165.395 441.026 164.883 440.534 164.195C440.05 163.508 439.808 162.641 439.808 161.594V143.687ZM450.577 166V148H453.343V166H450.577ZM451.983 145C451.444 145 450.979 144.816 450.589 144.449C450.206 144.082 450.015 143.641 450.015 143.125C450.015 142.609 450.206 142.168 450.589 141.801C450.979 141.434 451.444 141.25 451.983 141.25C452.522 141.25 452.983 141.434 453.366 141.801C453.757 142.168 453.952 142.609 453.952 143.125C453.952 143.641 453.757 144.082 453.366 144.449C452.983 144.816 452.522 145 451.983 145ZM473.127 148L466.471 166H463.658L457.002 148H460.002L464.971 162.344H465.158L470.127 148H473.127ZM483.68 166.375C481.945 166.375 480.449 165.992 479.191 165.227C477.941 164.453 476.977 163.375 476.297 161.992C475.625 160.602 475.289 158.984 475.289 157.141C475.289 155.297 475.625 153.672 476.297 152.266C476.977 150.852 477.922 149.75 479.133 148.961C480.352 148.164 481.773 147.766 483.398 147.766C484.336 147.766 485.262 147.922 486.176 148.234C487.09 148.547 487.922 149.055 488.672 149.758C489.422 150.453 490.02 151.375 490.465 152.523C490.91 153.672 491.133 155.086 491.133 156.766V157.937H477.258V155.547H488.32C488.32 154.531 488.117 153.625 487.711 152.828C487.313 152.031 486.742 151.402 486 150.941C485.266 150.48 484.398 150.25 483.398 150.25C482.297 150.25 481.344 150.523 480.539 151.07C479.742 151.609 479.129 152.312 478.699 153.18C478.27 154.047 478.055 154.977 478.055 155.969V157.563C478.055 158.922 478.289 160.074 478.758 161.02C479.234 161.957 479.895 162.672 480.738 163.164C481.582 163.648 482.563 163.891 483.68 163.891C484.406 163.891 485.063 163.789 485.648 163.586C486.242 163.375 486.754 163.063 487.184 162.648C487.613 162.227 487.945 161.703 488.18 161.078L490.852 161.828C490.57 162.734 490.098 163.531 489.434 164.219C488.77 164.898 487.949 165.43 486.973 165.812C485.996 166.188 484.898 166.375 483.68 166.375ZM502.975 144.578V142H520.975V144.578H513.428V166H510.521V144.578H502.975ZM530.021 166.375C528.287 166.375 526.791 165.992 525.533 165.227C524.283 164.453 523.318 163.375 522.639 161.992C521.967 160.602 521.631 158.984 521.631 157.141C521.631 155.297 521.967 153.672 522.639 152.266C523.318 150.852 524.264 149.75 525.475 148.961C526.693 148.164 528.115 147.766 529.74 147.766C530.678 147.766 531.604 147.922 532.518 148.234C533.432 148.547 534.264 149.055 535.014 149.758C535.764 150.453 536.361 151.375 536.807 152.523C537.252 153.672 537.475 155.086 537.475 156.766V157.937H523.6V155.547H534.662C534.662 154.531 534.459 153.625 534.053 152.828C533.654 152.031 533.084 151.402 532.342 150.941C531.607 150.48 530.74 150.25 529.74 150.25C528.639 150.25 527.686 150.523 526.881 151.07C526.084 151.609 525.471 152.312 525.041 153.18C524.611 154.047 524.396 154.977 524.396 155.969V157.563C524.396 158.922 524.631 160.074 525.1 161.02C525.576 161.957 526.236 162.672 527.08 163.164C527.924 163.648 528.904 163.891 530.021 163.891C530.748 163.891 531.404 163.789 531.99 163.586C532.584 163.375 533.096 163.063 533.525 162.648C533.955 162.227 534.287 161.703 534.521 161.078L537.193 161.828C536.912 162.734 536.439 163.531 535.775 164.219C535.111 164.898 534.291 165.43 533.314 165.812C532.338 166.188 531.24 166.375 530.021 166.375ZM548.994 166.375C547.307 166.375 545.854 165.977 544.635 165.18C543.416 164.383 542.479 163.285 541.822 161.887C541.166 160.488 540.838 158.891 540.838 157.094C540.838 155.266 541.174 153.652 541.846 152.254C542.525 150.848 543.471 149.75 544.682 148.961C545.9 148.164 547.322 147.766 548.947 147.766C550.213 147.766 551.354 148 552.369 148.469C553.385 148.937 554.217 149.594 554.865 150.437C555.514 151.281 555.916 152.266 556.072 153.391H553.307C553.096 152.57 552.627 151.844 551.9 151.211C551.182 150.57 550.213 150.25 548.994 150.25C547.916 150.25 546.971 150.531 546.158 151.094C545.354 151.648 544.725 152.434 544.271 153.449C543.826 154.457 543.604 155.641 543.604 157C543.604 158.391 543.822 159.602 544.26 160.633C544.705 161.664 545.33 162.465 546.135 163.035C546.947 163.605 547.9 163.891 548.994 163.891C549.713 163.891 550.365 163.766 550.951 163.516C551.537 163.266 552.033 162.906 552.439 162.437C552.846 161.969 553.135 161.406 553.307 160.75H556.072C555.916 161.812 555.529 162.77 554.912 163.621C554.303 164.465 553.494 165.137 552.486 165.637C551.486 166.129 550.322 166.375 548.994 166.375ZM562.881 155.172V166H560.115V142H562.881V150.812H563.115C563.537 149.883 564.17 149.145 565.014 148.598C565.865 148.043 566.998 147.766 568.412 147.766C569.639 147.766 570.713 148.012 571.635 148.504C572.557 148.988 573.271 149.734 573.779 150.742C574.295 151.742 574.553 153.016 574.553 154.563V166H571.787V154.75C571.787 153.32 571.416 152.215 570.674 151.434C569.939 150.645 568.92 150.25 567.615 150.25C566.709 150.25 565.896 150.441 565.178 150.824C564.467 151.207 563.904 151.766 563.49 152.5C563.084 153.234 562.881 154.125 562.881 155.172ZM582.378 155.172V166H579.612V148H582.284V150.812H582.519C582.94 149.898 583.581 149.164 584.44 148.609C585.3 148.047 586.409 147.766 587.769 147.766C588.987 147.766 590.054 148.016 590.968 148.516C591.882 149.008 592.593 149.758 593.101 150.766C593.608 151.766 593.862 153.031 593.862 154.563V166H591.097V154.75C591.097 153.336 590.729 152.234 589.995 151.445C589.261 150.648 588.253 150.25 586.972 150.25C586.089 150.25 585.3 150.441 584.604 150.824C583.917 151.207 583.374 151.766 582.976 152.5C582.577 153.234 582.378 154.125 582.378 155.172ZM606.229 166.375C604.604 166.375 603.178 165.988 601.951 165.215C600.732 164.441 599.779 163.359 599.092 161.969C598.412 160.578 598.072 158.953 598.072 157.094C598.072 155.219 598.412 153.582 599.092 152.184C599.779 150.785 600.732 149.699 601.951 148.926C603.178 148.152 604.604 147.766 606.229 147.766C607.854 147.766 609.275 148.152 610.494 148.926C611.721 149.699 612.674 150.785 613.354 152.184C614.041 153.582 614.385 155.219 614.385 157.094C614.385 158.953 614.041 160.578 613.354 161.969C612.674 163.359 611.721 164.441 610.494 165.215C609.275 165.988 607.854 166.375 606.229 166.375ZM606.229 163.891C607.463 163.891 608.479 163.574 609.275 162.941C610.072 162.309 610.662 161.477 611.045 160.445C611.428 159.414 611.619 158.297 611.619 157.094C611.619 155.891 611.428 154.77 611.045 153.73C610.662 152.691 610.072 151.852 609.275 151.211C608.479 150.57 607.463 150.25 606.229 150.25C604.994 150.25 603.979 150.57 603.182 151.211C602.385 151.852 601.795 152.691 601.412 153.73C601.029 154.77 600.838 155.891 600.838 157.094C600.838 158.297 601.029 159.414 601.412 160.445C601.795 161.477 602.385 162.309 603.182 162.941C603.979 163.574 604.994 163.891 606.229 163.891ZM621.372 142V166H618.606V142H621.372ZM633.75 166.375C632.125 166.375 630.699 165.988 629.473 165.215C628.254 164.441 627.301 163.359 626.613 161.969C625.934 160.578 625.594 158.953 625.594 157.094C625.594 155.219 625.934 153.582 626.613 152.184C627.301 150.785 628.254 149.699 629.473 148.926C630.699 148.152 632.125 147.766 633.75 147.766C635.375 147.766 636.797 148.152 638.016 148.926C639.242 149.699 640.195 150.785 640.875 152.184C641.563 153.582 641.906 155.219 641.906 157.094C641.906 158.953 641.563 160.578 640.875 161.969C640.195 163.359 639.242 164.441 638.016 165.215C636.797 165.988 635.375 166.375 633.75 166.375ZM633.75 163.891C634.984 163.891 636 163.574 636.797 162.941C637.594 162.309 638.184 161.477 638.566 160.445C638.949 159.414 639.141 158.297 639.141 157.094C639.141 155.891 638.949 154.77 638.566 153.73C638.184 152.691 637.594 151.852 636.797 151.211C636 150.57 634.984 150.25 633.75 150.25C632.516 150.25 631.5 150.57 630.703 151.211C629.906 151.852 629.316 152.691 628.934 153.73C628.551 154.77 628.359 155.891 628.359 157.094C628.359 158.297 628.551 159.414 628.934 160.445C629.316 161.477 629.906 162.309 630.703 162.941C631.5 163.574 632.516 163.891 633.75 163.891ZM653.394 173.125C652.058 173.125 650.909 172.953 649.948 172.609C648.987 172.273 648.187 171.828 647.546 171.273C646.913 170.727 646.409 170.141 646.034 169.516L648.237 167.969C648.487 168.297 648.804 168.672 649.187 169.094C649.569 169.523 650.093 169.895 650.757 170.207C651.429 170.527 652.308 170.687 653.394 170.687C654.847 170.687 656.046 170.336 656.991 169.633C657.937 168.93 658.409 167.828 658.409 166.328V162.672H658.175C657.972 163 657.683 163.406 657.308 163.891C656.94 164.367 656.409 164.793 655.714 165.168C655.026 165.535 654.097 165.719 652.925 165.719C651.472 165.719 650.167 165.375 649.011 164.688C647.862 164 646.952 163 646.28 161.687C645.616 160.375 645.284 158.781 645.284 156.906C645.284 155.062 645.608 153.457 646.257 152.09C646.905 150.715 647.808 149.652 648.964 148.902C650.12 148.145 651.456 147.766 652.972 147.766C654.144 147.766 655.073 147.961 655.761 148.352C656.456 148.734 656.987 149.172 657.354 149.664C657.729 150.148 658.019 150.547 658.222 150.859H658.503V148H661.175V166.516C661.175 168.062 660.823 169.32 660.12 170.289C659.425 171.266 658.487 171.98 657.308 172.434C656.136 172.895 654.831 173.125 653.394 173.125ZM653.3 163.234C654.409 163.234 655.347 162.98 656.112 162.473C656.878 161.965 657.46 161.234 657.858 160.281C658.257 159.328 658.456 158.187 658.456 156.859C658.456 155.562 658.261 154.418 657.87 153.426C657.479 152.434 656.901 151.656 656.136 151.094C655.37 150.531 654.425 150.25 653.3 150.25C652.128 150.25 651.151 150.547 650.37 151.141C649.597 151.734 649.015 152.531 648.624 153.531C648.241 154.531 648.05 155.641 648.05 156.859C648.05 158.109 648.245 159.215 648.636 160.176C649.034 161.129 649.62 161.879 650.394 162.426C651.175 162.965 652.144 163.234 653.3 163.234ZM666.237 166V148H669.003V166H666.237ZM667.644 145C667.104 145 666.64 144.816 666.249 144.449C665.866 144.082 665.675 143.641 665.675 143.125C665.675 142.609 665.866 142.168 666.249 141.801C666.64 141.434 667.104 141.25 667.644 141.25C668.183 141.25 668.644 141.434 669.026 141.801C669.417 142.168 669.612 142.609 669.612 143.125C669.612 143.641 669.417 144.082 669.026 144.449C668.644 144.816 668.183 145 667.644 145ZM681.615 166.375C679.881 166.375 678.385 165.992 677.127 165.227C675.877 164.453 674.912 163.375 674.232 161.992C673.561 160.602 673.225 158.984 673.225 157.141C673.225 155.297 673.561 153.672 674.232 152.266C674.912 150.852 675.857 149.75 677.068 148.961C678.287 148.164 679.709 147.766 681.334 147.766C682.271 147.766 683.197 147.922 684.111 148.234C685.025 148.547 685.857 149.055 686.607 149.758C687.357 150.453 687.955 151.375 688.4 152.523C688.846 153.672 689.068 155.086 689.068 156.766V157.937H675.193V155.547H686.256C686.256 154.531 686.053 153.625 685.646 152.828C685.248 152.031 684.678 151.402 683.936 150.941C683.201 150.48 682.334 150.25 681.334 150.25C680.232 150.25 679.279 150.523 678.475 151.07C677.678 151.609 677.064 152.312 676.635 153.18C676.205 154.047 675.99 154.977 675.99 155.969V157.563C675.99 158.922 676.225 160.074 676.693 161.02C677.17 161.957 677.83 162.672 678.674 163.164C679.518 163.648 680.498 163.891 681.615 163.891C682.342 163.891 682.998 163.789 683.584 163.586C684.178 163.375 684.689 163.063 685.119 162.648C685.549 162.227 685.881 161.703 686.115 161.078L688.787 161.828C688.506 162.734 688.033 163.531 687.369 164.219C686.705 164.898 685.885 165.43 684.908 165.812C683.932 166.188 682.834 166.375 681.615 166.375ZM706.025 152.031L703.541 152.734C703.385 152.32 703.154 151.918 702.85 151.527C702.553 151.129 702.146 150.801 701.631 150.543C701.115 150.285 700.455 150.156 699.65 150.156C698.549 150.156 697.631 150.41 696.896 150.918C696.17 151.418 695.807 152.055 695.807 152.828C695.807 153.516 696.057 154.059 696.557 154.457C697.057 154.855 697.838 155.187 698.9 155.453L701.572 156.109C703.182 156.5 704.381 157.098 705.17 157.902C705.959 158.699 706.354 159.727 706.354 160.984C706.354 162.016 706.057 162.937 705.463 163.75C704.877 164.562 704.057 165.203 703.002 165.672C701.947 166.141 700.721 166.375 699.322 166.375C697.486 166.375 695.967 165.977 694.764 165.18C693.561 164.383 692.799 163.219 692.479 161.687L695.104 161.031C695.354 162 695.826 162.727 696.521 163.211C697.225 163.695 698.143 163.938 699.275 163.938C700.564 163.938 701.588 163.664 702.346 163.117C703.111 162.562 703.494 161.898 703.494 161.125C703.494 160.5 703.275 159.977 702.838 159.555C702.4 159.125 701.729 158.805 700.822 158.594L697.822 157.891C696.174 157.5 694.963 156.895 694.189 156.074C693.424 155.246 693.041 154.211 693.041 152.969C693.041 151.953 693.326 151.055 693.896 150.273C694.475 149.492 695.26 148.879 696.252 148.434C697.252 147.988 698.385 147.766 699.65 147.766C701.432 147.766 702.83 148.156 703.846 148.937C704.869 149.719 705.596 150.75 706.025 152.031Z" fill="black"/>
</svg>
