<?xml version="1.0" encoding="UTF-8"?>
<svg version="1.1" xmlns="http://www.w3.org/2000/svg" width="500" height="500">
<path d="M0 0 C1.10561075 -0.00260775 2.21122149 -0.00521549 3.3503356 -0.00790226 C4.58017125 -0.00567154 5.8100069 -0.00344082 7.07711029 -0.0011425 C8.37174525 -0.00270249 9.66638021 -0.00426248 11.00024652 -0.00586975 C14.61036416 -0.01006758 18.22045556 -0.00797035 21.83057332 -0.00488353 C25.71745693 -0.00263148 29.60433587 -0.00610806 33.49121857 -0.00886345 C41.11218683 -0.01332225 48.73314528 -0.01234419 56.35411394 -0.00945081 C62.54496808 -0.0071972 68.73581946 -0.00688407 74.92667389 -0.00797462 C76.24572184 -0.00820447 76.24572184 -0.00820447 77.59141722 -0.00843897 C79.37753896 -0.00875868 81.1636607 -0.00908289 82.94978243 -0.00941156 C99.71880797 -0.01226667 116.48782805 -0.00897884 133.25685269 -0.00361119 C147.66174435 0.00085687 162.06662795 0.00008095 176.47151947 -0.00452995 C193.17840568 -0.00987517 209.88528711 -0.01199198 226.59217405 -0.00891769 C228.37191741 -0.00859912 230.15166076 -0.00828475 231.93140411 -0.00797462 C232.80719137 -0.00782035 233.68297862 -0.00766607 234.58530489 -0.00750712 C240.77245998 -0.00664181 246.95961204 -0.00810516 253.14676666 -0.01045418 C260.6814732 -0.01325179 268.21616931 -0.01251474 275.75087464 -0.00717343 C279.59901766 -0.00453589 283.44714327 -0.00353225 287.29528618 -0.00682259 C291.45719535 -0.01032753 295.61906011 -0.00615746 299.78096771 -0.0011425 C301.62572119 -0.00448858 301.62572119 -0.00448858 303.5077424 -0.00790226 C304.61335315 -0.00529452 305.7189639 -0.00268677 306.858078 0 C307.82012697 0.00016235 308.78217593 0.0003247 309.7733779 0.00049198 C311.929039 0.12584114 311.929039 0.12584114 312.929039 1.12584114 C313.02710402 4.2608581 313.05894294 7.37386231 313.04929352 10.50927925 C313.05057516 12.00514105 313.05057516 12.00514105 313.05188268 13.53122228 C313.0535405 16.90010068 313.0480112 20.26893016 313.04256439 23.63780403 C313.04228256 26.04186184 313.04244018 28.44591973 313.0430069 30.84997749 C313.04323522 36.039782 313.04038388 41.22957529 313.03476906 46.41937637 C313.02665614 53.92303903 313.02403905 61.42669559 313.02278107 68.93036216 C313.02059022 81.10335403 313.01392924 93.27633922 313.00447845 105.44932747 C312.99530519 117.27712661 312.98822394 129.10492393 312.98397064 140.93272591 C312.98357656 142.0255722 312.98357656 142.0255722 312.98317451 143.1404962 C312.98186951 146.79533894 312.98060579 150.4501817 312.97936261 154.10502446 C312.96898897 184.44530253 312.95055012 214.78556834 312.929039 245.12584114 C295.769039 245.12584114 278.609039 245.12584114 260.929039 245.12584114 C260.79854327 220.55238465 260.66813499 195.9789277 260.53788757 171.40546989 C260.47741089 159.99601651 260.41689448 148.58656335 260.3562851 137.17711067 C260.30346824 127.23454875 260.25072536 117.29198644 260.19807196 107.34942365 C260.17018078 102.0832124 260.14225213 96.81700136 260.11423492 91.55079079 C260.08787876 86.5965759 260.06162135 81.6423605 260.03544044 76.68814468 C260.02580228 74.86763489 260.01612771 73.0471253 260.00641441 71.22661591 C259.99317966 68.74508781 259.98007477 66.26355906 259.96700287 63.78203011 C259.96311192 63.05829224 259.95922097 62.33455438 259.95521212 61.58888507 C259.93872149 58.43445439 259.929039 55.28033168 259.929039 52.12584114 C189.639039 52.12584114 119.349039 52.12584114 46.929039 52.12584114 C46.929039 122.74584114 46.929039 193.36584114 46.929039 266.12584114 C110.07149929 266.08621909 110.07149929 266.08621909 173.21395111 266.03575325 C185.39693451 266.03123665 185.39693451 266.03123665 191.09140778 266.03039742 C195.08803609 266.02946178 199.08465126 266.02569854 203.08127594 266.02026558 C208.16905308 266.01344023 213.25681092 266.01134369 218.34459221 266.01276886 C220.21815604 266.01247056 222.0917205 266.0104678 223.96528041 266.00662601 C226.48345254 266.00169966 229.00154834 266.0028336 231.51972198 266.00558662 C232.26365991 266.00267396 233.00759783 265.9997613 233.77407932 265.99676037 C238.81491418 266.01171631 238.81491418 266.01171631 239.929039 267.12584114 C240.02750867 268.68583162 240.05702518 270.25024658 240.05843353 271.81334114 C240.06158569 272.81107552 240.06473785 273.80880989 240.06798553 274.83677864 C240.06494919 276.46486458 240.06494919 276.46486458 240.0618515 278.12584114 C240.06280823 279.23185677 240.06376495 280.33787239 240.06475067 281.47740364 C240.06543267 283.82115422 240.06357704 286.16490667 240.0594101 288.50865364 C240.05406214 292.11025902 240.05935447 295.71173967 240.06575775 299.31334114 C240.06509697 301.58417475 240.06381582 303.85500828 240.0618515 306.12584114 C240.06387573 307.21123177 240.06589996 308.29662239 240.06798553 309.41490364 C240.06325729 310.9115052 240.06325729 310.9115052 240.05843353 312.43834114 C240.05763794 313.32134895 240.05684235 314.20435677 240.05602264 315.11412239 C239.929039 317.12584114 239.929039 317.12584114 238.929039 318.12584114 C235.79630677 318.22613047 232.68553982 318.26021466 229.55233002 318.25282478 C228.55579438 318.25438477 227.55925875 318.25594476 226.53252506 318.25755203 C223.16598378 318.26156669 219.79948694 318.25837058 216.43294525 318.25523567 C214.03050968 318.25658951 211.62807431 318.25836934 209.22563934 318.26054573 C203.36130338 318.26464609 197.49697911 318.26402678 191.63264346 318.26113309 C186.86865811 318.25887922 182.10467635 318.25856646 177.34069061 318.25965691 C176.66392668 318.25981014 175.98716275 318.25996337 175.28989083 318.26012125 C173.91527009 318.26044096 172.54064935 318.26076517 171.16602862 318.26109384 C158.26126646 318.26394875 145.35651139 318.26066143 132.4517504 318.25529347 C121.36702794 318.25082542 110.28231596 318.25160135 99.19759369 318.25621223 C86.34056011 318.2615578 73.48353276 318.26367406 60.62649822 318.26059997 C59.25679461 318.26028141 57.887091 318.25996703 56.51738739 318.25965691 C55.84338018 318.25950263 55.16937298 318.25934836 54.47494131 318.2591894 C49.71396235 318.25832419 44.95298732 318.25978721 40.19200897 318.26213646 C33.7899355 318.2652259 27.38787721 318.26304191 20.98580551 318.2572422 C18.62866626 318.25591389 16.27152535 318.25630991 13.91438675 318.25850487 C10.71148416 318.26121361 7.50864638 318.25783864 4.30574799 318.25282478 C2.88705335 318.25617087 2.88705335 318.25617087 1.43969822 318.25958455 C-4.95681119 318.23999095 -4.95681119 318.23999095 -6.070961 317.12584114 C-6.16910444 315.44306414 -6.19651678 313.75613404 -6.19680214 312.07049751 C-6.19940989 310.96837016 -6.20201763 309.86624281 -6.2047044 308.73071766 C-6.20247368 307.50477296 -6.20024296 306.27882826 -6.19794464 305.01573372 C-6.19950463 303.72518231 -6.20106462 302.43463091 -6.20267189 301.10497189 C-6.2068697 297.5062558 -6.20477249 293.90756603 -6.20168567 290.30884981 C-6.19943362 286.43423625 -6.2029102 282.55962737 -6.20566559 278.68501472 C-6.21012438 271.08810992 -6.20914634 263.49121496 -6.20625295 255.89430976 C-6.20399934 249.72300177 -6.20368621 243.55169655 -6.20477676 237.38038826 C-6.20500661 236.06550335 -6.20500661 236.06550335 -6.20524111 234.72405511 C-6.20556081 232.94357037 -6.20588503 231.16308564 -6.2062137 229.3826009 C-6.20906881 212.66651048 -6.20578098 195.95042554 -6.20041333 179.23433602 C-6.19594526 164.87492613 -6.19672119 150.51552432 -6.20133209 136.15611458 C-6.20667731 119.50196607 -6.20879411 102.84782238 -6.20571983 86.19367313 C-6.20540126 84.41954676 -6.20508689 82.64542039 -6.20477676 80.87129402 C-6.20462249 79.99827088 -6.20446821 79.12524773 -6.20430926 78.22576934 C-6.20344395 72.05815091 -6.20490729 65.89053552 -6.20725632 59.72291756 C-6.21005393 52.21199958 -6.20931688 44.70109206 -6.20397557 37.19017529 C-6.20133803 33.35418385 -6.20033438 29.51820988 -6.20362473 25.68221855 C-6.20712968 21.53344652 -6.20295959 17.38471902 -6.19794464 13.23594856 C-6.20017536 12.01000386 -6.20240608 10.78405916 -6.2047044 9.52096462 C-6.20209666 8.41883727 -6.19948891 7.31670992 -6.19680214 6.18118477 C-6.19663979 5.22217357 -6.19647743 4.26316236 -6.19631016 3.27509022 C-5.95482154 -0.86549738 -3.59646168 0.00060693 0 0 Z " fill="#0269BD" transform="translate(81.07096099853516,74.87415885925293)"/>
<path d="M0 0 C1.00730415 -0.00262848 1.00730415 -0.00262848 2.03495789 -0.00531006 C4.26486765 -0.00972777 6.49469874 -0.00679089 8.72460938 -0.00341797 C10.26778173 -0.00409103 11.81095398 -0.00506108 13.35412598 -0.00631714 C16.59237678 -0.007794 19.83060005 -0.00563993 23.06884766 -0.00097656 C27.2287846 0.00472073 31.38865704 0.00144166 35.54859161 -0.00454903 C38.73635345 -0.00815496 41.92409989 -0.00701591 45.11186218 -0.00442123 C46.6461335 -0.00375205 48.1804062 -0.00458008 49.7146759 -0.00690079 C51.85539478 -0.00942784 53.9960078 -0.00558601 56.13671875 0 C57.96752991 0.00119339 57.96752991 0.00119339 59.83532715 0.00241089 C62.56835938 0.12939453 62.56835938 0.12939453 63.56835938 1.12939453 C63.66268923 3.33807284 63.68578369 5.54980974 63.68188477 7.76049805 C63.6820053 8.46438376 63.68212584 9.16826948 63.68225002 9.89348507 C63.68150105 12.18178864 63.67387354 14.4700117 63.66601562 16.75830078 C63.66454616 18.16711386 63.66352548 19.57592748 63.66296387 20.98474121 C63.65771153 26.22046729 63.64375044 31.45618169 63.63085938 36.69189453 C63.61023438 48.38626953 63.58960938 60.08064453 63.56835938 72.12939453 C40.13835937 72.12939453 16.70835937 72.12939453 -7.43164062 72.12939453 C-7.45226562 60.43501953 -7.47289062 48.74064453 -7.49414062 36.69189453 C-7.50324463 32.99429932 -7.51234863 29.2967041 -7.52172852 25.48706055 C-7.52624512 20.98474121 -7.52624512 20.98474121 -7.52708435 18.87950134 C-7.52862368 17.40370889 -7.53214839 15.92791773 -7.53721619 14.45213318 C-7.54449543 12.22156578 -7.54554798 9.99107548 -7.54516602 7.76049805 C-7.54738663 6.50141129 -7.54960724 5.24232452 -7.55189514 3.94508362 C-7.32983869 -1.25423809 -4.59652666 0.00299618 0 0 Z " fill="#086CBF" transform="translate(360.431640625,351.87060546875)"/>
<path d="M0 0 C40.36690334 -0.02286475 80.73380584 -0.0404974 121.10071435 -0.05106533 C125.8611696 -0.05231611 130.62162484 -0.05361042 135.38208008 -0.05493164 C136.32984265 -0.05519395 137.27760522 -0.05545626 138.25408787 -0.05572652 C153.62111441 -0.06008356 168.98813722 -0.0679713 184.35516154 -0.0771528 C200.11092903 -0.08648839 215.86669457 -0.09205541 231.62246472 -0.09408849 C241.35276049 -0.09546392 251.08304575 -0.09981556 260.81333829 -0.10791647 C267.47633419 -0.11318276 274.13932461 -0.11480456 280.80232244 -0.11350138 C284.65248516 -0.11285781 288.50262944 -0.11387756 292.35278893 -0.11920547 C296.51693808 -0.12492616 300.68104743 -0.12300125 304.84519958 -0.12025452 C306.69097624 -0.12462378 306.69097624 -0.12462378 308.57404131 -0.12908131 C309.68026875 -0.12709026 310.7864962 -0.12509921 311.92624569 -0.12304783 C313.37013225 -0.12361741 313.37013225 -0.12361741 314.84318823 -0.1241985 C317 0 317 0 318 1 C318.09806502 4.13501696 318.12990394 7.24802117 318.12025452 10.38343811 C318.12153615 11.87929991 318.12153615 11.87929991 318.12284368 13.40538114 C318.1245015 16.77425954 318.1189722 20.14308902 318.11352539 23.51196289 C318.11324356 25.9160207 318.11340118 28.32007859 318.1139679 30.72413635 C318.11419621 35.91394086 318.11134488 41.10373415 318.10573006 46.29353523 C318.09761714 53.79719789 318.09500005 61.30085445 318.09374207 68.80452102 C318.09155122 80.97751289 318.08489024 93.15049808 318.07543945 105.32348633 C318.06626618 117.15128547 318.05918494 128.97908279 318.05493164 140.80688477 C318.05453756 141.89973106 318.05453756 141.89973106 318.05413551 143.01465506 C318.05283051 146.6694978 318.05156679 150.32434055 318.05032361 153.97918332 C318.03994997 184.31946139 318.02151112 214.6597272 318 245 C300.84 245 283.68 245 266 245 C265.86950427 220.42654351 265.73909599 195.85308656 265.60884857 171.27962875 C265.54837189 159.87017537 265.48785548 148.46072221 265.42724609 137.05126953 C265.37442923 127.10870761 265.32168636 117.1661453 265.26903296 107.22358251 C265.24114177 101.95737126 265.21321313 96.69116022 265.18519592 91.42494965 C265.15883976 86.47073476 265.13258235 81.51651936 265.10640144 76.56230354 C265.09676328 74.74179375 265.0870887 72.92128416 265.07737541 71.10077477 C265.06414066 68.61924667 265.05103576 66.13771792 265.03796387 63.65618896 C265.03407292 62.9324511 265.03018197 62.20871324 265.02617311 61.46304393 C265.00968249 58.30861325 265 55.15449054 265 52 C194.71 52 124.42 52 52 52 C52 51.67 52 51.34 52 51 C123.28 51 194.56 51 268 51 C268 114.69 268 178.38 268 244 C283.84 244 299.68 244 316 244 C315.505 123.715 315.505 123.715 315 1 C211.05 1 107.1 1 0 1 C0 0.67 0 0.34 0 0 Z " fill="#6B9CC5" transform="translate(76,75)"/>
<path d="M0 0 C2 2 2 2 2.24839699 4.25536215 C2.24763755 5.20542242 2.24687811 6.15548269 2.24609566 7.13433266 C2.25007775 8.22861757 2.25405985 9.32290248 2.25816262 10.45034754 C2.25233693 11.66238868 2.24651125 12.87442981 2.24050903 14.12319946 C2.24221788 15.4030602 2.24392673 16.68292094 2.24568737 18.00156534 C2.25017647 21.56578409 2.24213591 25.12988349 2.23213124 28.69408703 C2.22352143 32.53321527 2.22641515 36.37233638 2.22793579 40.21147156 C2.22898621 46.86692534 2.22269324 53.52234002 2.21146011 60.17778397 C2.1952293 69.80051935 2.18999959 79.42323577 2.18748413 89.04598336 C2.18310322 104.65696839 2.16978339 120.26793255 2.15087891 135.87890625 C2.13253034 151.04654843 2.11839176 166.21418493 2.10986328 181.38183594 C2.10932729 182.32577839 2.10879129 183.26972084 2.10823905 184.24226761 C2.10408039 191.624147 2.10016648 199.00602651 2.09632993 206.38790607 C2.07745105 242.59195653 2.03721718 278.79595478 2 315 C81.86 315 161.72 315 244 315 C244 299.16 244 283.32 244 267 C244.66 266.67 245.32 266.34 246 266 C246.02526787 273.10244999 246.04283201 280.20488848 246.05493164 287.30737305 C246.05997349 289.72567172 246.06680678 292.14396733 246.07543945 294.56225586 C246.08751157 298.02979283 246.09322963 301.49728966 246.09765625 304.96484375 C246.10281754 306.05337143 246.10797882 307.14189911 246.11329651 308.26341248 C246.11337204 309.26437454 246.11344757 310.26533661 246.11352539 311.29663086 C246.115746 312.18265488 246.11796661 313.06867889 246.12025452 313.98155212 C246 316 246 316 245 317 C241.86726776 317.10028932 238.75650082 317.13437352 235.62329102 317.12698364 C234.62675538 317.12854363 233.63021975 317.13010362 232.60348606 317.13171089 C229.23694477 317.13572555 225.87044794 317.13252944 222.50390625 317.12939453 C220.10147068 317.13074837 217.69903531 317.1325282 215.29660034 317.13470459 C209.43226437 317.13880495 203.56794011 317.13818564 197.70360446 317.13529195 C192.93961911 317.13303808 188.17563734 317.13272532 183.41165161 317.13381577 C182.73488768 317.133969 182.05812375 317.13412223 181.36085182 317.13428011 C179.98623109 317.13459982 178.61161035 317.13492403 177.23698962 317.1352527 C164.33222746 317.13810761 151.42747239 317.13482029 138.5227114 317.12945233 C127.43798894 317.12498428 116.35327695 317.12576021 105.26855469 317.13037109 C92.41152111 317.13571666 79.55449375 317.13783292 66.69745922 317.13475883 C65.32775561 317.13444026 63.958052 317.13412589 62.58834839 317.13381577 C61.91434118 317.13366149 61.24033398 317.13350721 60.54590231 317.13334826 C55.78492335 317.13248305 51.02394832 317.13394607 46.26296997 317.13629532 C39.8608965 317.13938476 33.45883821 317.13720077 27.05676651 317.13140106 C24.69962726 317.13007275 22.34248635 317.13046877 19.98534775 317.13266373 C16.78244516 317.13537247 13.57960738 317.1319975 10.37670898 317.12698364 C8.95801435 317.13032973 8.95801435 317.13032973 7.51065922 317.13374341 C1.1141498 317.1141498 1.1141498 317.1141498 0 316 C-0.09724601 314.31626147 -0.12371524 312.62840739 -0.12304783 310.94186306 C-0.12503888 309.83911901 -0.12702993 308.73637496 -0.12908131 307.60021442 C-0.12616847 306.3735876 -0.12325563 305.14696078 -0.12025452 303.88316345 C-0.12110894 302.59190648 -0.12196337 301.30064951 -0.12284368 299.97026354 C-0.12509108 296.36961449 -0.12106404 292.76899491 -0.11606562 289.16834962 C-0.11176479 285.29171202 -0.11320728 281.41507621 -0.1139679 277.53843689 C-0.11449337 270.81640666 -0.11134417 264.09438611 -0.10573006 257.37235832 C-0.09761816 247.65332136 -0.09500016 237.93428911 -0.09374207 228.21524913 C-0.09155106 212.4484284 -0.08488965 196.68161284 -0.07543945 180.91479492 C-0.0662666 165.59480821 -0.05918515 150.27482289 -0.05493164 134.95483398 C-0.05466892 134.01120611 -0.05440619 133.06757823 -0.05413551 132.09535556 C-0.05283051 127.36165969 -0.0515668 122.62796381 -0.05032361 117.89426792 C-0.03994947 78.596175 -0.02232983 39.29808784 0 0 Z " fill="#4683BB" transform="translate(75,76)"/>
<path d="M0 0 C22.44 0 44.88 0 68 0 C68 23.1 68 46.2 68 70 C45.23 70 22.46 70 -1 70 C-1 47.56 -1 25.12 -1 2 C-0.67 2 -0.34 2 0 2 C0 23.78 0 45.56 0 68 C20.79 68.33 41.58 68.66 63 69 C63.495 67.02 63.495 67.02 64 65 C64.33 65 64.66 65 65 65 C65.01030746 64.34569 65.02061493 63.69138 65.03123474 63.01724243 C65.1399122 56.17074823 65.25445537 49.32436951 65.37231445 42.47802734 C65.41546817 39.92727082 65.4571559 37.37648903 65.49731445 34.82568359 C65.55549388 31.14673266 65.61904796 27.46790659 65.68359375 23.7890625 C65.70030624 22.65949127 65.71701874 21.52992004 65.73423767 20.36611938 C65.75418289 19.28575409 65.77412811 18.20538879 65.79467773 17.09228516 C65.81022202 16.15518707 65.8257663 15.21808899 65.84178162 14.25259399 C66.05723126 9.82346127 66.55876372 5.41236284 67 1 C44.89 1 22.78 1 0 1 C0 0.67 0 0.34 0 0 Z " fill="#125FA7" transform="translate(355,353)"/>
</svg>
